{"title":"INXS:Mystify-Live at Rockpalast 1997 DVDRip x264 AC3 5.1 titler","uid":11894666,"size":1622784026,"categoryP":"video","categoryS":"movies","magnet":"?xt=urn:btih:2b33cb55c00fd30089debc97a4c6fa0801eadb0c&amp;dn=INXS%3AMystify-Live+at+Rockpalast+1997+DVDRip+x264+AC3+5.1+titler&amp;tr=udp%3A%2F%2Ftracker.openbittorrent.com%3A80&amp;tr=udp%3A%2F%2Fopen.demonii.com%3A1337&amp;tr=udp%3A%2F%2Ftracker.coppersurfer.tk%3A6969&amp;tr=udp%3A%2F%2Fexodus.desync.com%3A6969","seeders":2,"leechers":2,"uploader":"movieZ.freak","files":4,"time":1431123335,"description":"SOURCE: DVD9\n &lt;a href=&quot;\nhttp://www.imdb.com/title/tt2873878/&quot; rel=&quot;nofollow&quot; target=&quot;_NEW&quot;&gt;\nhttp://www.imdb.com/title/tt2873878/&lt;/a&gt;\n\n\nDVD MENU:\n-------------- &lt;a href=&quot;\nhttp://someimage.com/Or20&quot; rel=&quot;nofollow&quot; target=&quot;_NEW&quot;&gt;\nhttp://someimage.com/Or20&lt;/a&gt;\n\n\nSCREENSHOTS:\n------------------- &lt;a href=&quot;\nhttp://someimage.com/JSPY&quot; rel=&quot;nofollow&quot; target=&quot;_NEW&quot;&gt;\nhttp://someimage.com/JSPY&lt;/a&gt;\n\n\nSonglist:\n-----------\n01 - Elegantly Wasted\n02 - New Sensation\n03 - Taste It\n04 - Just A Man\n05 - Heaven Sent\n06 - Searching\n07 - Disappear\n08 - Never Tear Us Apart\n09 - Everything\n10 - Need You Tonight\n11 - Bitter Tears\n12 - Girl On Fire\n13 - Kick\n14 - Devil Inside\n15 - What You Need\n16 - Don t Lose Your Head\n17 - Mystify\n18 - Suicide Blonde\n\n\nBonus Tracks: Rockpalast Performance Live 1984\n--------------------------------------------------------------\n01 - Just Keep Walking\n02 - The One Thing\n03 - I Send A Message\n04 - Original Sin\n05 - Don t Change\n06 - Stay Young\n\n\nNOTE:\n----------\n- &quot;Never expect miracle quality from encoded old digitally remastered DVDs&quot;. :)\n- Check the sample.\n- Thanks and enjoy.\n\n\nINFO:\n-----------\nAustralian rock legends INXS performed one of their last gigs with the original line-up on July 21, 1997, running through a set at the Loreley Festival and taping the proceedings for long-running German live music program, Rockpalast. Lead singer Michael Hutchence would be found dead in a hotel room after committing suicide just five months later, adding a slight chill to hearing the band perform strings of their best-known hits on an all-killer, no-filler set list. Despite the as-of-yet untold future that lay ahead for the band, Mystify: Rockpalast Collection finds them in full control of their performance, brimming over with all the sex, sin, and narcotic swagger that made songs like &quot;New Sensation&quot; and &quot;Need You Tonight&quot; so seductive to begin with. In addition to the 18 songs recorded in 1997, this collection also includes bonus material in the form of songs from the band's 1984 appearance on Rockpalast, long before fame found them.\n\n************************************\n\n- Duration: 1h 20mn (Bonus: 24mn 32s)\n\n- Nominal bit rate: 1523 Kbps (Bonus: 1840 Kbps)\n\n- Res: 720 x 540\n\n- AR: 4:3\n\n- FPS: 29.970 fps\n\n- Audio: AC3, 6 channels, 448Kbps (bonus also)\n\n****************************************\n\nGeneral\n--------------\nFormat : Matroska\nFormat version : Version 4 / Version 2\nFile size : 1.11 GiB\nDuration : 1h 20mn\nOverall bit rate : 1973 Kbps\nEncoded date : UTC 2015-05-08 17:45:37\nWriting application : mkvmerge v7.8.0 ('River Man') 64bit built on Mar 27 2015 16:31:37\nWriting library : libebml v1.3.1 + libmatroska v1.4.2\n\nVideo\n---------\nFormat : AVC\nFormat/Info : Advanced Video Codec\nFormat profile : &lt;a class=&quot;__cf_email__&quot; href=&quot;/cdn-cgi/l/email-protection&quot; data-cfemail=&quot;6c210d05022c2058425d&quot;&gt;[email&amp;#160;protected]&lt;/a&gt;&lt;script cf-hash='f9e31' type=&quot;text/javascript&quot;&gt;\n/* &lt;![CDATA[ */!function(){try{var t=&quot;currentScript&quot;in document?document.currentScript:function(){for(var t=document.getElementsByTagName(&quot;script&quot;),e=t.length;e--;)if(t[e].getAttribute(&quot;cf-hash&quot;))return t[e]}();if(t&amp;&amp;t.previousSibling){var e,r,n,i,c=t.previousSibling,a=c.getAttribute(&quot;data-cfemail&quot;);if(a){for(e=&quot;&quot;,r=parseInt(a.substr(0,2),16),n=2;a.length-n;n+=2)i=parseInt(a.substr(n,2),16)^r,e+=String.fromCharCode(i);e=document.createTextNode(e),c.parentNode.replaceChild(e,c)}}}catch(u){}}();/* ]]&gt; */&lt;/script&gt;\nFormat settings, CABAC : Yes\nFormat settings, ReFrames : 4 frames\nCodec ID : V_MPEG4/ISO/AVC\nDuration : 1h 20mn\nBit rate : 1523 Kbps\nWidth : 720 pixels\nHeight : 540 pixels\nDisplay aspect ratio : 4:3\nFrame rate mode : Constant\nFrame rate : 29.970 fps\nColor space : YUV\nChroma subsampling : 4:2:0\nBit depth : 8 bits\nScan type : Progressive\nBits/(Pixel*Frame) : 0.131\nStream size : 852 MiB (75%)\nWriting library : x264 core 142\nEncoding settings : cabac=1 / ref=4\nDefault : Yes\nForced : No\n\nAudio\n----------\nFormat : AC-3\nFormat/Info : Audio Coding 3\nMode extension : CM (complete main)\nFormat settings, Endianness : Big\nCodec ID : A_AC3\nDuration : 1h 20mn\nBit rate mode : Constant\nBit rate : 448 Kbps\nChannel(s) : 6 channels\nChannel positions : Front: L C R, Side: L R, LFE\nSampling rate : 48.0 KHz\nBit depth : 16 bits\nCompression mode : Lossy\nStream size : 257 MiB (23%)\nTitle : Surround\nLanguage : English\nDefault : Yes\nForced : No","torrent":{"xt":"urn:btih:2b33cb55c00fd30089debc97a4c6fa0801eadb0c","amp;dn":"INXS%3AMystify-Live+at+Rockpalast+1997+DVDRip+x264+AC3+5.1+titler","amp;tr":["udp%3A%2F%2Ftracker.openbittorrent.com%3A80","udp%3A%2F%2Fopen.demonii.com%3A1337","udp%3A%2F%2Ftracker.coppersurfer.tk%3A6969","udp%3A%2F%2Fexodus.desync.com%3A6969"],"infoHash":"2b33cb55c00fd30089debc97a4c6fa0801eadb0c","infoHashBuffer":{"type":"Buffer","data":[43,51,203,85,192,15,211,0,137,222,188,151,164,198,250,8,1,234,219,12]},"announce":[],"urlList":[]}}